<?xml version="1.0" encoding="UTF-8"?>
<svg width="21px" height="24px" viewBox="0 0 21 24" version="1.1" xmlns="http://www.w3.org/2000/svg" xmlns:xlink="http://www.w3.org/1999/xlink">
    <!-- Generator: Sketch 60.1 (88133) - https://sketch.com -->
    <title>cart</title>
    <desc>Created with Sketch.</desc>
    <g id="Desktop" stroke="none" stroke-width="1" fill="none" fill-rule="evenodd">
        <g id="Desktop_1.2_Homepage" transform="translate(-1233.000000, -23.000000)" fill="#FFFFFF" fill-rule="nonzero">
            <g id="Header-7">
                <g id="Group-2" transform="translate(1121.000000, 23.000000)">
                    <g id="cart" transform="translate(112.000000, 0.000000)">
                        <path d="M20.9877361,22.9976358 L19.4438147,6.7336543 C19.4016802,6.28949912 19.0081411,5.94929027 18.5367685,5.94929027 L15.3528786,5.94929027 L15.3528786,4.59098175 C15.3528786,2.05951549 13.1757249,0 10.499635,0 C7.82366666,0 5.6467558,2.05951549 5.6467558,4.59098175 L5.6467558,5.94929027 L2.46068018,5.94929027 C1.98930758,5.94929027 1.59576853,6.28949912 1.55363399,6.7336543 L0.00364140424,23.0616116 C-0.019186532,23.3025833 0.0660539532,23.5413727 0.238599152,23.7198618 C0.41114435,23.8983508 0.655087562,24 0.910687593,24 L20.0868826,24 C20.0876111,24 20.0885825,24 20.0893111,24 C20.5923756,24 21,23.6143075 21,23.1385664 C21,23.0906707 20.9957501,23.0434641 20.9877361,22.9976358 Z M7.46813369,4.59098175 C7.46813369,3.00950448 8.82809585,1.72286723 10.4997565,1.72286723 C12.1715385,1.72286723 13.5316221,3.00950448 13.5316221,4.59098175 L13.5316221,5.94929027 L7.46813369,5.94929027 L7.46813369,4.59098175 Z M1.90685987,22.2772476 L3.29329272,7.67215751 L5.6467558,7.67215751 L5.6467558,9.21263053 C5.6467558,9.6883716 6.05438017,10.0740641 6.55744475,10.0740641 C7.06050932,10.0740641 7.46813369,9.6883716 7.46813369,9.21263053 L7.46813369,7.67215751 L13.5316221,7.67215751 L13.5316221,9.21263053 C13.5316221,9.6883716 13.9392465,10.0740641 14.4423111,10.0740641 C14.9453756,10.0740641 15.353,9.6883716 15.353,9.21263053 L15.353,7.67215751 L17.7042774,7.67215751 L19.0907103,22.2772476 L1.90685987,22.2772476 L1.90685987,22.2772476 Z" id="Shape"></path>
                    </g>
                </g>
            </g>
        </g>
    </g>
</svg>