<?xml version="1.0" encoding="UTF-8"?>
<svg width="19px" height="21px" viewBox="0 0 19 21" version="1.1" xmlns="http://www.w3.org/2000/svg" xmlns:xlink="http://www.w3.org/1999/xlink">
    <title>gg</title>
    <g id="Desktop" stroke="none" stroke-width="1" fill="none" fill-rule="evenodd">
        <g id="Desktop_1.2_Signin/Signup" transform="translate(-799.000000, -736.000000)" fill-rule="nonzero">
            <g id="Group-6" transform="translate(334.000000, 225.000000)">
                <g id="Group-34" transform="translate(401.000000, 496.250000)">
                    <g id="gg" transform="translate(64.000000, 15.000000)">
                        <path d="M4.19907153,12.08625 L3.53955049,14.6851563 L1.12901625,14.7389844 C0.408620321,13.3285547 0,11.7148438 0,10 C0,8.34175781 0.382050009,6.77800781 1.05925992,5.40109375 L1.05977801,5.40109375 L3.20583032,5.81640625 L4.14593091,8.068125 C3.94916997,8.67363281 3.84192656,9.32363281 3.84192656,10 C3.84200058,10.7340625 3.96796902,11.4373828 4.19907153,12.08625 Z" id="Path" fill="#FBBB00"></path>
                        <path d="M18.7815473,8.131875 C18.890345,8.73679687 18.9470752,9.36152344 18.9470752,10 C18.9470752,10.7159375 18.8757646,11.4142969 18.7399156,12.0879297 C18.2787467,14.3802344 17.0737202,16.381875 15.4044162,17.7983594 L15.4038981,17.7978125 L12.7008314,17.6522266 L12.3182633,15.1313281 C13.4259271,14.445625 14.2915716,13.3725391 14.7475596,12.0879297 L9.68180741,12.0879297 L9.68180741,8.131875 L14.8214606,8.131875 L18.7815473,8.131875 L18.7815473,8.131875 Z" id="Path" fill="#518EF8"></path>
                        <path d="M15.4038611,17.7978125 L15.4043792,17.7983594 C13.7808887,19.1758203 11.718544,20 9.4735376,20 C5.86578505,20 2.72911895,17.8714453 1.12901625,14.7390234 L4.19907153,12.0862891 C4.99910438,14.3401172 7.05882168,15.9445312 9.4735376,15.9445312 C10.5114451,15.9445312 11.4838149,15.6483594 12.3181893,15.1313281 L15.4038611,17.7978125 Z" id="Path" fill="#28B446"></path>
                        <path d="M15.5204671,2.3021875 L12.4514479,4.954375 C11.5879128,4.38460938 10.5671391,4.05546875 9.4735376,4.05546875 C7.00416381,4.05546875 4.90592326,5.73347656 4.14596791,8.068125 L1.05977801,5.40109375 L1.05925992,5.40109375 C2.63593783,2.19230469 5.81216334,0 9.4735376,0 C11.7721657,0 13.8797688,0.864296875 15.5204671,2.3021875 Z" id="Path" fill="#F14336"></path>
                    </g>
                </g>
            </g>
        </g>
    </g>
</svg>