<?xml version="1.0" encoding="UTF-8"?>
<svg width="24px" height="24px" viewBox="0 0 24 24" version="1.1" xmlns="http://www.w3.org/2000/svg" xmlns:xlink="http://www.w3.org/1999/xlink">
    <!-- Generator: Sketch 60.1 (88133) - https://sketch.com -->
    <title>search</title>
    <desc>Created with Sketch.</desc>
    <g id="Desktop" stroke="none" stroke-width="1" fill="none" fill-rule="evenodd">
        <g id="Desktop_1.2_Homepage" transform="translate(-1135.000000, -23.000000)" fill="#FFFFFF" fill-rule="nonzero">
            <g id="Header-7">
                <g id="Group-2" transform="translate(1121.000000, 23.000000)">
                    <g id="search">
                        <path d="M24.1818182,7.10542736e-15 C18.5675442,7.10542736e-15 14,4.56754416 14,10.1818182 C14,15.7960922 18.5675442,20.3636364 24.1818182,20.3636364 C29.7960922,20.3636364 34.3636364,15.7960922 34.3636364,10.1818182 C34.3636364,4.56754416 29.7960451,7.10542736e-15 24.1818182,7.10542736e-15 Z M24.1818182,18.5825385 C19.5495419,18.5825385 15.7810979,14.8140944 15.7810979,10.1818182 C15.7810979,5.54954192 19.5495419,1.78109789 24.1818182,1.78109789 C28.813812,1.78109789 32.5825385,5.54954192 32.5825385,10.1818182 C32.5825385,14.8140944 28.8140944,18.5825385 24.1818182,18.5825385 Z" id="Shape"></path>
                        <path d="M37.7413357,22.4928395 L31.3253592,16.0768822 C30.9804267,15.7319483 30.4218136,15.7319483 30.0768811,16.0768822 C29.7319487,16.4215361 29.7319487,16.9807118 30.0768811,17.3253656 L36.4928577,23.7413229 C36.6653239,23.9137899 36.8910469,24 37.1170967,24 C37.3431464,24 37.5688695,23.9137899 37.7413357,23.7413229 C38.0862214,23.3966691 38.0862214,22.8374934 37.7413357,22.4928395 Z" id="Path"></path>
                    </g>
                </g>
            </g>
        </g>
    </g>
</svg>