<?xml version="1.0" encoding="UTF-8"?>
<svg width="24px" height="24px" viewBox="0 0 24 24" version="1.1" xmlns="http://www.w3.org/2000/svg" xmlns:xlink="http://www.w3.org/1999/xlink">
    <!-- Generator: Sketch 60.1 (88133) - https://sketch.com -->
    <title>user</title>
    <desc>Created with Sketch.</desc>
    <g id="Desktop" stroke="none" stroke-width="1" fill="none" fill-rule="evenodd">
        <g id="Desktop_1.2_Homepage" transform="translate(-1184.000000, -23.000000)" fill="#FFFFFF" fill-rule="nonzero">
            <g id="Header-7">
                <g id="Group-2" transform="translate(1121.000000, 23.000000)">
                    <g id="user" transform="translate(63.000000, 0.000000)">
                        <path d="M20.6702606,3.69289812 C18.4050858,1.32841485 15.2709336,-0.0059845631 11.9965542,2.01785317e-05 C5.37941392,-0.00829416814 0.0083532648,5.34943722 9.45591376e-06,11.9669075 C-0.00409799239,15.2390154 1.33009438,18.3704381 3.69272043,20.6341021 C3.69959875,20.6409305 3.70215929,20.6512233 3.7089874,20.6572484 C3.77837303,20.7240763 3.85378347,20.7806616 3.92407282,20.8449289 C4.11686648,21.0162915 4.30966014,21.1936793 4.51274617,21.3590671 C4.62154405,21.4447735 4.73465971,21.5304297 4.84606834,21.6092575 C5.03800848,21.7523526 5.22994863,21.8954477 5.43042391,22.0274467 C5.56668485,22.1131531 5.70721335,22.1988093 5.84683813,22.2845158 C6.03189996,22.3959291 6.21615849,22.5081458 6.40724512,22.6101199 C6.56921188,22.6958263 6.73454248,22.7694826 6.89906978,22.8474569 C7.07901053,22.9331633 7.25639074,23.0188195 7.44059905,23.0959403 C7.62480737,23.173061 7.80991941,23.2330605 7.99668826,23.2998884 C8.18345712,23.3667163 8.34457037,23.428423 8.5236576,23.483251 C8.72589012,23.544104 8.93324371,23.5911999 9.13889028,23.6417602 C9.31024569,23.6837347 9.47648002,23.7317344 9.65300671,23.766027 C9.88948018,23.813173 10.1294179,23.8431477 10.3693557,23.8757332 C10.517616,23.8963188 10.6624121,23.9254399 10.8123292,23.9400005 C11.2047948,23.9785608 11.6006243,24 11.9999181,24 C12.3992118,24 12.7950915,23.9785608 13.1875069,23.9400005 C13.3374743,23.9254399 13.4822704,23.8963188 13.6304805,23.8757332 C13.8704182,23.8431477 14.1103058,23.813173 14.3468294,23.766027 C14.5181848,23.7317344 14.6895904,23.6803205 14.8609459,23.6417602 C15.0665924,23.5911999 15.273946,23.5440538 15.4761785,23.483251 C15.6552658,23.428423 15.8283282,23.361595 16.0031479,23.2998884 C16.1779675,23.2381818 16.3767358,23.1713539 16.5592371,23.0959403 C16.7417384,23.0205266 16.9208256,22.9322595 17.1007664,22.8474569 C17.2652937,22.7694826 17.4306745,22.6957761 17.592591,22.6101199 C17.7836777,22.5081458 17.967886,22.3958789 18.152998,22.2845158 C18.292673,22.1988093 18.4332015,22.120835 18.5694122,22.0274467 C18.7699377,21.8954979 18.9618779,21.7524028 19.1537678,21.6092575 C19.2651764,21.5235511 19.3782419,21.4464304 19.48709,21.3590671 C19.690176,21.1962399 19.8829697,21.0231701 20.0757633,20.8449289 C20.1460025,20.7806616 20.2214129,20.7241265 20.2908487,20.6572484 C20.2976769,20.6512735 20.3002876,20.6409807 20.3071157,20.6341021 C25.0854865,16.0561637 25.2480055,8.47132031 20.6702606,3.69289812 Z M18.7443825,19.736921 C18.5884406,19.8740412 18.4273273,20.0042829 18.2645573,20.1302568 C18.1686123,20.2039633 18.0726171,20.2767661 17.9740614,20.3470584 C17.818973,20.4593253 17.661324,20.5655671 17.5010642,20.6675412 C17.3845345,20.7421013 17.2654443,20.8140505 17.1454503,20.8843428 C16.9946294,20.9700492 16.841248,21.0557055 16.6861596,21.1414119 C16.5490451,21.211654 16.4093701,21.2776786 16.2688918,21.3427994 C16.1284135,21.4079202 15.9732749,21.4773088 15.8216005,21.5381619 C15.6699261,21.5990149 15.5088631,21.6564036 15.3503104,21.7095245 C15.2055143,21.7592312 15.0607182,21.810645 14.9141649,21.8543267 C14.7428095,21.9057405 14.5637223,21.9477151 14.3863421,21.9905934 C14.2475206,22.0231287 14.1104564,22.059982 13.9699279,22.0874462 C13.7668418,22.1268601 13.5594882,22.1542741 13.3512811,22.1825417 C13.2330444,22.1979558 13.1156612,22.2193949 12.9965207,22.2313948 C12.6674661,22.2630766 12.334144,22.2819551 11.9974077,22.2819551 C11.6606715,22.2819551 11.3273494,22.2631268 10.9982948,22.2313948 C10.8792045,22.2193949 10.7618213,22.1979558 10.6435343,22.1825417 C10.4353272,22.1542741 10.2279736,22.1268601 10.0248876,22.0874462 C9.8843591,22.0600322 9.74724465,22.0231789 9.60847338,21.9905934 C9.43109318,21.9477653 9.25456648,21.904887 9.08065053,21.8543267 C8.93414743,21.810645 8.78930116,21.7592312 8.64450509,21.7095245 C8.48600259,21.6546965 8.32744989,21.5989647 8.17321496,21.5381619 C8.01898003,21.4773088 7.87333045,21.4104809 7.72592363,21.3427994 C7.57851681,21.2751179 7.44572013,21.2117042 7.30865589,21.1414119 C7.15356745,21.060877 7.00018604,20.9760241 6.84936516,20.8843428 C6.7294214,20.8141007 6.61028094,20.7421013 6.49375123,20.6675412 C6.33354171,20.5655671 6.17584252,20.4593253 6.02075408,20.3470584 C5.92219836,20.2768163 5.82625339,20.2039633 5.73025822,20.1302568 C5.56743795,20.0042829 5.40637491,19.8731877 5.25043295,19.736921 C5.21272774,19.7086534 5.17843657,19.6726537 5.14163507,19.6400682 C5.17994277,16.7250956 7.0525014,14.1511914 9.81411995,13.2176089 C11.1949543,13.8744907 12.7981541,13.8744907 14.1789885,13.2176089 C16.9405568,14.1511914 18.8131155,16.7250454 18.8514734,19.6400682 C18.8154752,19.6726537 18.781184,19.7052392 18.7443825,19.736921 Z M9.00860394,6.87051298 C9.93637323,5.2204508 12.0260255,4.63496593 13.6760179,5.56277444 C15.3260104,6.49058295 15.9114705,8.58032363 14.9837012,10.2303858 C14.675884,10.7778626 14.2235218,11.230244 13.6760179,11.5381243 C13.6717504,11.5381243 13.6665791,11.5381243 13.661458,11.5432456 C13.4342226,11.6697216 13.194084,11.7714447 12.9451091,11.8466072 C12.9005757,11.8594607 12.8594063,11.8765819 12.8123124,11.8877283 C12.7266096,11.910021 12.6366392,11.9254351 12.5483759,11.9408492 C12.3821917,11.9699201 12.2140496,11.9867902 12.0454053,11.9914094 L11.9477031,11.9914094 C11.7790589,11.9867902 11.6109167,11.9699201 11.4447326,11.9408492 C11.3590298,11.9254351 11.2682059,11.910021 11.1808463,11.8877283 C11.1354092,11.8765819 11.0951435,11.8594607 11.0480496,11.8466072 C10.7990746,11.7714447 10.5589361,11.6697718 10.3317006,11.5432456 L10.3162872,11.5381243 C8.66629479,10.6103158 8.08083466,8.52057515 9.00860394,6.87051298 Z M20.3715309,17.9409018 L20.3715309,17.9409018 C19.8216673,15.3760854 18.1328149,13.2016927 15.7838953,12.034338 C17.7040499,9.94258893 17.5649773,6.69021316 15.4733168,4.7699774 C13.3816562,2.84974165 10.1294179,2.98882004 8.20926336,5.08056907 C6.4041323,7.04704714 6.4041323,10.0679101 8.20926336,12.034338 C5.86034373,13.2017429 4.17149135,15.3760854 3.62162777,17.9409018 C0.33590166,13.3125035 1.4241817,6.89672197 6.05238429,3.61085693 C10.6805869,0.324991881 17.0960971,1.41331794 20.3818233,6.04171623 C21.6169578,7.78160196 22.2799873,9.86280714 22.2789342,11.9965809 C22.2789342,14.128497 21.6119874,16.2069909 20.3715309,17.9409018 Z" id="Shape"></path>
                    </g>
                </g>
            </g>
        </g>
    </g>
</svg>